<?xml version="1.0" encoding="UTF-8"?>
<svg width="155px" height="145px" viewBox="0 0 155 145" version="1.1" xmlns="http://www.w3.org/2000/svg" xmlns:xlink="http://www.w3.org/1999/xlink">
    <!-- Generator: Sketch 53.2 (72643) - https://sketchapp.com -->
    <title>Desktop</title>
    <desc>Created with Sketch.</desc>
    <defs>
        <linearGradient x1="50%" y1="0%" x2="50%" y2="100%" id="linearGradient-1">
            <stop stop-color="#EEF5FF" offset="0%"></stop>
            <stop stop-color="#CEE0FF" offset="100%"></stop>
        </linearGradient>
        <path d="M8.70386555,7.91530252 L13.9981176,12.9002437 L14.5600924,0.126781513 L2.64173109,1.49620168 L0.222991597,5.62604202 L4.34563866,5.84633613 L5.8939916,9.17322689 C6.05763866,9.52389916 6.41460504,9.74239496 6.80214286,9.7280084 C7.37221008,9.70552941 7.79751261,9.19480672 7.71568908,8.62923529 L7.88023529,7.29128571 L8.70386555,7.91530252" id="path-2"></path>
    </defs>
    <g id="Page-1" stroke="none" stroke-width="1" fill="none" fill-rule="evenodd">
        <g id="Desktop" transform="translate(-418.000000, -787.000000)">
            <g id="How-it-works" transform="translate(174.000000, 676.000000)">
                <g id="two" transform="translate(234.000000, 103.000000)">
                    <path d="M95.1745555,118.569325 C117.099222,118.569325 136.486652,135.230049 148.247987,118.569325 C155.729561,107.971172 162.291901,94.9109066 160.125285,81.0671471 C158.481912,70.5666848 145.340691,74.0514241 135.143703,61.7407067 C119.503896,42.8589305 120.486647,16.0259087 95.1745555,16.0259087 C71.0207589,16.0259087 78.9251836,39.8290721 63.4637917,57.2621924 C51.2797637,71 34.0053144,66.7666666 30.2238257,81.0671471 C26.6988543,94.3975549 34.4287947,107.403001 41.6131913,117.868441 C53.3218355,134.924308 72.9439223,118.569325 95.1745555,118.569325 Z" id="Oval" fill="url(#linearGradient-1)" fill-rule="nonzero" transform="translate(94.944369, 71.000000) rotate(15.000000) translate(-94.944369, -71.000000) "></path>
                    <g id="wifi" transform="translate(90.000000, 57.000000)">
                        <path d="M55.9616498,12.9997488 C55.6958986,12.9997488 55.4301474,12.9012963 55.2277198,12.705396 C48.1001894,5.80668843 38.6078886,2.00823013 28.5,2.00823013 C18.3921114,2.00823013 8.89981059,5.80668843 1.77228025,12.705396 C1.36638681,13.0982013 0.710313522,13.0982013 0.304420081,12.705396 C-0.10147336,12.3125906 -0.10147336,11.6776724 0.304420081,11.284867 C7.82434869,4.00741871 17.837771,0 28.5,0 C39.162229,0 49.1766894,4.00741871 56.6955799,11.284867 C57.1014734,11.6776724 57.1014734,12.3125906 56.6955799,12.705396 C56.4931522,12.9012963 56.227401,12.9997488 55.9616498,12.9997488 Z" id="Path" fill="#424A60"></path>
                        <path d="M7.04309815,18.9997383 C6.77613177,18.9997383 6.50916538,18.8971547 6.30581208,18.6930342 C5.89806264,18.2837465 5.89806264,17.6221868 6.30581208,17.2128991 C18.5445523,4.92798689 38.4575333,4.93008043 50.6941879,17.2128991 C51.1019374,17.6221868 51.1019374,18.2837465 50.6941879,18.6930342 C50.2864385,19.1023219 49.6273652,19.1023219 49.2196158,18.6930342 C37.7942887,7.22460391 19.2046684,7.22460391 7.78038423,18.6930342 C7.57703093,18.8971547 7.31006454,18.9997383 7.04309815,18.9997383 Z" id="Path" fill="#9777A8"></path>
                        <path d="M43.9804584,25.9997524 C43.7195209,25.9997524 43.4585835,25.9027017 43.2598226,25.7095906 C39.4578828,22.0157212 34.3930466,19.980627 29,19.980627 C23.6069534,19.980627 18.5431365,22.0157212 14.7401774,25.7095906 C14.3416363,26.0968031 13.697447,26.0968031 13.2989059,25.7095906 C12.9003647,25.322378 12.9003647,24.6964999 13.2989059,24.3092873 C17.4861361,20.2410794 23.0626543,18 29,18 C34.9373457,18 40.5128446,20.2410794 44.7010941,24.3092873 C45.0996353,24.6964999 45.0996353,25.322378 44.7010941,25.7095906 C44.5023332,25.903692 44.2413958,25.9997524 43.9804584,25.9997524 Z" id="Path" fill="#7FABDA"></path>
                        <path d="M28.9994658,28 C25.1401969,28 22,31.1399573 22,35 C22,38.8600427 25.1401969,42 28.9994658,42 C32.8598031,42 36,38.8600427 36,35 C36,31.1399573 32.8598031,28 28.9994658,28 Z" id="Path" fill="#7FABDA"></path>
                    </g>
                    <g id="Group-3" transform="translate(44.000000, 34.000000)">
                        <polyline id="Fill-275" fill="#E3AEA0" points="12.1521429 29.6749664 9.70642857 27.8739496 7.19327731 31.3051429 9.43308403 32.9362185 12.1521429 29.6749664"></polyline>
                        <path d="M8.99159664,33.0612017 L13.3174538,27.8739496 L26.9388235,35.3567563 L27.8838403,35.3630504 C31.1684706,35.0600336 33.0917731,37.9067731 33.1169496,39.7716303 C33.1421261,41.6364874 31.6504202,43.1677563 29.785563,43.1938319 L26.2662521,43.0481681 C25.4740924,43.0526639 24.6981176,42.8332689 24.0264454,42.4151597 L8.99159664,33.0612017" id="Fill-276" fill="#4D6494"></path>
                        <path d="M5.98174231,31.3057239 C4.31290197,30.9064971 3.28336416,29.2304634 3.68259105,27.5616231 C4.08181794,25.8918836 5.75875071,24.863245 7.42759105,25.2624718 C9.09643139,25.6616987 10.1259692,27.3386315 9.72674231,29.0074718 C9.32751542,30.6763122 7.65058265,31.70585 5.98174231,31.3057239" id="Fill-277" fill="#E3AEA0"></path>
                        <polyline id="Fill-278" fill="#789C9D" points="21.9134202 55.7478992 12.4929244 73.6717479 7.19327731 102.599513 12.4308824 102.599513 20.9171513 77.6631176 30.0741933 64.3582521 21.9134202 55.7478992"></polyline>
                        <polyline id="Fill-279" fill="#CC998F" points="24.6801345 18.747479 29.3099076 17.142479 27.1087647 10.789916 22.4789916 12.394916 24.6801345 18.747479"></polyline>
                        <path d="M17.4163093,13.5064397 C20.1407631,16.0717422 24.4288556,15.9431624 26.9941581,13.2187086 C29.5594606,10.495154 29.4308808,6.20706157 26.706427,3.64085989 C23.9828724,1.07555737 19.6938808,1.20503636 17.1285783,3.92859098 C14.5632757,6.65304477 14.6918556,10.9411372 17.4163093,13.5064397" id="Fill-280" fill="#E3AEA0"></path>
                        <path d="M15.4323925,9.8907563 L14.4936698,11.3087311 C14.2086362,11.7385294 14.5269387,12.310395 15.0421572,12.2951092 L16.2380395,12.2591429 L17.3053421,11.1262017 L15.4323925,9.8907563" id="Fill-281" fill="#E3AEA0"></path>
                        <g id="Group-284" transform="translate(15.285714, 0.000000)">
                            <mask id="mask-3" fill="white">
                                <use xlink:href="#path-2"></use>
                            </mask>
                            <g id="Clip-283"></g>
                            <path d="M2.35310084,13.7985042 C5.07755462,16.3638067 9.36564706,16.2352269 11.9309496,13.5107731 C14.4962521,10.7872185 14.6527059,5.70786555 11.9282521,3.14256303 C9.20379832,0.577260504 4.63067227,1.49710084 2.06536975,4.22065546 C-0.499932773,6.94510924 -0.371352941,11.2332017 2.35310084,13.7985042" id="Fill-282" fill="#212123" mask="url(#mask-3)"></path>
                        </g>
                        <path d="M23.99474,8.78095844 C24.7824038,9.52276516 26.022345,9.48500046 26.7641517,8.69733659 C27.5050593,7.90967273 27.4681937,6.66973155 26.6805299,5.92792483 C25.892866,5.18611811 24.6529248,5.22298365 23.9111181,6.01154668 C23.1693114,6.79921054 23.2061769,8.03915172 23.99474,8.78095844" id="Fill-285" fill="#E3AEA0"></path>
                        <path d="M30.4212689,13.487395 L22.8593361,18.1423445 L24.5632437,19.648437 C24.5632437,19.648437 20.6447059,38.1549412 19.7815126,55.8683866 L40.8596134,54.2355126 L35.3351765,23.3763529 C35.225479,22.3513109 34.9053782,21.360437 34.3955546,20.4657731 L30.4212689,13.487395" id="Fill-286" fill="#44598F"></path>
                        <polyline id="Fill-287" fill="#82ABAB" points="21.5798319 56.2388403 37.5632941 103.090454 41.9979496 103.090454 33.7400672 60.4127395 35.7865546 54.8487395 21.5798319 56.2388403"></polyline>
                        <path d="M29.6722689,106.270782 L41.9197227,106.270782 L41.9197227,102.504202 L33.4388487,102.504202 C31.3581933,102.504202 29.6722689,104.191025 29.6722689,106.270782" id="Fill-288" fill="#212123"></path>
                        <path d="M-1.59872116e-14,104.044064 L12.1674286,105.442257 L12.5981261,101.699056 L4.173,100.730661 C2.10583193,100.494182 0.238277311,101.976896 -1.59872116e-14,104.044064" id="Fill-289" fill="#212123"></path>
                        <path d="M11.0446655,27.8220857 L7.26999325,30.2686991 C6.92831257,30.4907916 6.47153946,30.3927832 6.25034619,30.0511025 L1.91729577,23.3667495 C1.69520333,23.0250689 1.79321173,22.5682958 2.13489241,22.3471025 L5.90956467,19.900489 C6.25124535,19.6783966 6.7071193,19.776405 6.93011089,20.1180857 L11.2622622,26.8024386 C11.4834554,27.1441193 11.3863462,27.6008924 11.0446655,27.8220857" id="Fill-290" fill="#212123"></path>
                        <path d="M9.44702592,26.8071016 L6.85834525,28.4849335 C6.60927803,28.6467822 6.27479063,28.5757486 6.11294189,28.3257822 L2.78425282,23.1906814 C2.62240408,22.940715 2.69343769,22.6071268 2.94340408,22.445278 L5.53118559,20.7674461 C5.78205113,20.6055974 6.11563937,20.676631 6.27658895,20.9265974 L9.60617719,26.0616982 C9.76802592,26.3116646 9.69699231,26.6452528 9.44702592,26.8071016" id="Fill-291" fill="#FFFCFC"></path>
                        <path d="M24.8486027,20.3521883 C24.5779556,22.0596925 24.4817455,23.8517177 24.5087203,25.6086757 C24.5311993,27.3737261 24.7047371,29.1324824 25.0005606,30.864264 C25.2846951,32.5987429 25.7261825,34.3017514 26.3178296,35.9445161 C26.866317,37.6070623 27.6692665,39.1617093 28.505485,40.68039 L28.5288632,40.7235497 C28.7509556,41.1272724 28.6043926,41.6352976 28.1997707,41.8591883 C27.7942497,42.0812808 27.2871237,41.9338186 27.0641321,41.5291967 C27.0605354,41.5220035 27.0551405,41.5130119 27.0515438,41.5058186 C26.213527,39.8603564 25.4267623,38.1843228 24.907048,36.4183732 C24.3441741,34.6695077 23.9449472,32.8729866 23.7102665,31.0620791 C23.4638968,29.2520707 23.3461069,27.4276757 23.3856699,25.6068774 C23.4225354,23.7824824 23.5744934,21.9841631 23.9278632,20.1624656 C23.9764178,19.9071043 24.2236867,19.7407598 24.4781489,19.7902135 C24.7272161,19.837869 24.8917623,20.0752472 24.8530985,20.3234152 L24.8486027,20.3521883" id="Fill-292" fill="#212123"></path>
                        <path d="M26.0756303,39.8813277 C26.0756303,39.8813277 30.7782353,39.9307815 40.6357227,31.4705882 L45.6089748,42.5653193 C45.9380672,43.2513782 45.8796218,44.0956891 45.4480252,44.731395 C43.8726975,47.0539244 39.3661092,52.1377731 30.4833109,51.3555042 C29.751395,51.2916639 29.1345714,50.7431765 28.9178739,49.9752941 L26.0756303,39.8813277" id="Fill-293" fill="#212123"></path>
                        <path d="M39.5437624,32.5970387 C39.4052918,32.0422572 39.1319473,31.3705849 38.8451154,30.7735429 C38.550191,30.1630135 38.2076112,29.568669 37.8344599,28.9905093 C37.0737708,27.8431816 36.1800061,26.7677866 35.1774431,25.7904001 C35.0344767,25.6537278 35.0299809,25.4271396 35.1675524,25.2850723 C35.295233,25.1528959 35.5020397,25.1412068 35.6450061,25.2509043 C36.7887372,26.139274 37.8470482,27.152627 38.7929641,28.2810723 C39.2587288,28.8493412 39.6984179,29.4454841 40.0958465,30.0775933 C40.4950734,30.7240891 40.8475439,31.337316 41.1496616,32.1348706 C41.3142078,32.5673664 41.095712,33.0511143 40.6623171,33.2156606 C40.2298213,33.3784085 39.7460734,33.1608118 39.5824263,32.728316 C39.5707372,32.6986438 39.5617456,32.6680723 39.5545524,32.6392992 L39.5437624,32.5970387" id="Fill-294" fill="#212123"></path>
                        <polyline id="Fill-295" fill="#E3AEA0" points="25.460605 54.8487395 24.2773109 57.6469244 28.2003445 59.2923866 29.2649496 56.7342773 25.460605 54.8487395"></polyline>
                        <path d="M30.3286555,56.6570922 L24.2773109,53.6583947 L28.3855714,38.668504 L25.336521,26.9003023 C24.2773109,23.7757225 26.5989412,21.2427897 28.4062521,20.7851174 C30.213563,20.326546 32.0505462,21.4208233 32.5091176,23.2281342 L36.0221345,37.5337645 C36.210958,38.302546 36.1776891,39.1081931 35.9277227,39.8589914 L30.3286555,56.6570922" id="Fill-296" fill="#4D6494"></path>
                        <path d="M28.693084,59.7536555 C28.693084,61.4701513 27.3029832,62.8611513 25.5855882,62.8611513 C23.8699916,62.8611513 22.4789916,61.4701513 22.4789916,59.7536555 C22.4789916,58.0380588 23.8699916,56.6470588 25.5855882,56.6470588 C27.3029832,56.6470588 28.693084,58.0380588 28.693084,59.7536555" id="Fill-297" fill="#E3AEA0"></path>
                    </g>
                </g>
            </g>
        </g>
    </g>
</svg>