<?xml version="1.0" encoding="UTF-8"?>
<svg width="155px" height="145px" viewBox="0 0 155 145" version="1.1" xmlns="http://www.w3.org/2000/svg" xmlns:xlink="http://www.w3.org/1999/xlink">
    <!-- Generator: Sketch 53.2 (72643) - https://sketchapp.com -->
    <title>Desktop</title>
    <desc>Created with Sketch.</desc>
    <defs>
        <linearGradient x1="50%" y1="0%" x2="50%" y2="100%" id="linearGradient-1">
            <stop stop-color="#EEF5FF" offset="0%"></stop>
            <stop stop-color="#CEE0FF" offset="100%"></stop>
        </linearGradient>
    </defs>
    <g id="Page-1" stroke="none" stroke-width="1" fill="none" fill-rule="evenodd">
        <g id="Desktop" transform="translate(-657.000000, -787.000000)">
            <g id="How-it-works" transform="translate(174.000000, 676.000000)">
                <g id="3" transform="translate(479.000000, 102.000000)">
                    <path d="M88.1745555,118.401206 C110.099222,118.401206 129.486652,135.061929 141.247987,118.401206 C148.729561,107.803053 155.291901,94.7427871 153.125285,80.8990277 C151.481912,70.3985653 138.340691,73.8833046 128.143703,61.5725872 C112.503896,42.690811 113.486647,15.8577892 88.1745555,15.8577892 C64.0207589,15.8577892 71.9251836,39.6609527 56.4637917,57.094073 C44.2797637,70.8318805 27.0053144,66.5985471 23.2238257,80.8990277 C19.6988543,94.2294354 27.4287947,107.234881 34.6131913,117.700321 C46.3218355,134.756188 65.9439223,118.401206 88.1745555,118.401206 Z" id="Oval" fill="url(#linearGradient-1)" fill-rule="nonzero" transform="translate(87.944369, 70.831881) rotate(15.000000) translate(-87.944369, -70.831881) "></path>
                    <g id="suv-(1)" transform="translate(15.000000, 71.000000)">
                        <path d="M114.951653,19.9790204 C111.049398,17.5755204 98.4625306,14.5024388 80.799,14.5024388 L71.4685102,3.61733673 C69.500602,1.32156122 66.6274796,0 63.6036837,0 L20.0060102,0 C17.808102,0 15.7000816,0.873295918 14.1459388,2.42767347 L3.69502041,12.8797653 C2.63326531,13.9415204 1.87989796,15.2722347 1.51541837,16.7287449 L0,22.7894796 L31.0769898,37.2916837 L118.090918,37.2916837 L118.090918,25.5797551 C118.090684,23.2891429 116.901724,21.1804184 114.951653,19.9790204 Z" id="Path" fill="#87D7FF"></path>
                        <path d="M71.7041429,3.82809184 C69.7362347,1.53231633 66.8631122,0.210755102 63.8393163,0.210755102 L20.2416429,0.210755102 C18.0437347,0.210755102 15.9357143,1.08405102 14.3815714,2.63842857 L4.37938776,12.6413163 L9.79682653,12.6413163 C11.7077041,12.6413163 13.6171735,12.7469286 15.5163163,12.9581531 L31.3109796,14.7131939 L81.034398,14.7131939 L71.7041429,3.82809184 Z" id="Path" fill="#64BEF0"></path>
                        <path d="M68.4639592,14.7129592 L34.0651122,14.7129592 C32.2305102,14.7129592 30.397551,14.6113367 28.5742143,14.4090306 L17.7909694,13.2106837 C15.5672449,12.963551 14.4892959,10.3615 15.8871327,8.61420408 L19.7084184,3.83747959 C20.4946429,2.85458163 21.6852449,2.28239796 22.9439082,2.28239796 L58.3754082,2.28239796 C59.6049694,2.28239796 60.7711633,2.82853061 61.5583265,3.77293878 L69.2598061,13.0137755 C69.8221327,13.6887551 69.3421837,14.7129592 68.4639592,14.7129592 Z" id="Path" fill="#625D6B"></path>
                        <path d="M118.326316,27.1435204 C118.326316,23 112.111153,18.8564796 83.1065102,18.8564796 L2.30727551,18.8564796 C1.16314286,18.8564796 0.235632653,19.7839898 0.235632653,20.9281224 L0.234693878,31.2870408 L39.5994286,35.4305612 L118.326316,35.4305612 L118.326316,27.1435204 Z" id="Path" fill="#64BEF0"></path>
                        <path d="M118.326316,33.3589184 L21.1797143,33.3589184 L2.7562449,29.2651531 C1.64966327,29.0222449 0.532755102,29.7192857 0.283744898,30.8380714 C0.0368469388,31.9549796 0.741163265,33.0615612 1.85783673,33.309398 L20.5035612,37.4529184 C20.6511837,37.4862449 20.8009184,37.5024388 20.9525306,37.5024388 L118.325612,37.5024388 C119.470684,37.5024388 120.39749,36.5746939 120.39749,35.4307959 C120.39749,34.286898 119.471388,33.3589184 118.326316,33.3589184 Z" id="Path" fill="#00AADC"></path>
                        <circle id="Oval" fill="#EDEDEE" cx="17.8447143" cy="34.3941531" r="9.49571429"></circle>
                        <path d="M17.8447143,45.7894796 C11.5612551,45.7894796 6.45009184,40.6780816 6.45009184,34.3948571 C6.45009184,28.111398 11.5614898,23.0002347 17.8447143,23.0002347 C24.1279388,23.0002347 29.2393367,28.1116327 29.2393367,34.3948571 C29.2393367,40.6780816 24.1281735,45.7894796 17.8447143,45.7894796 Z M17.8447143,27.1435204 C13.8457653,27.1435204 10.5936122,30.3956735 10.5936122,34.3946224 C10.5936122,38.3935714 13.8457653,41.6457245 17.8447143,41.6457245 C21.8436633,41.6457245 25.0958163,38.3935714 25.0958163,34.3946224 C25.0958163,30.3956735 21.8436633,27.1435204 17.8447143,27.1435204 Z" id="Shape" fill="#504B5A" fill-rule="nonzero"></path>
                        <circle id="Oval" fill="#DCDBDE" cx="17.8447143" cy="34.3941531" r="4.14352041"></circle>
                        <g id="Group" transform="translate(31.214286, 24.877551)" fill="#00AADC">
                            <path d="M51.8908163,4.33784694 L2.16857143,4.33784694 C1.02443878,4.33784694 0.0969285714,3.41033673 0.0969285714,2.26620408 L0.0969285714,2.26620408 C0.0969285714,1.12207143 1.02467347,0.194561224 2.16857143,0.194561224 L51.8908163,0.194561224 C53.034949,0.194561224 53.9624592,1.12230612 53.9624592,2.26620408 L53.9624592,2.26620408 C53.9624592,3.41033673 53.034949,4.33784694 51.8908163,4.33784694 Z" id="Path"></path>
                            <path d="M87.1120306,4.33784694 L85.0403878,4.33784694 C83.8962551,4.33784694 82.9685102,3.41033673 82.9685102,2.26620408 L82.9685102,2.26620408 C82.9685102,1.12207143 83.8962551,0.194561224 85.0403878,0.194561224 L87.1120306,0.194561224 C88.2561633,0.194561224 89.1836735,1.12230612 89.1836735,2.26620408 L89.1836735,2.26620408 C89.1836735,3.41033673 88.2561633,4.33784694 87.1120306,4.33784694 Z" id="Path"></path>
                        </g>
                        <rect id="Rectangle" fill="#504B5A" x="45.8134184" y="2.28192857" width="4.14352041" height="12.4305612"></rect>
                        <path d="M116.102357,20.9283571 L114.182327,20.9283571 C113.038194,20.9283571 112.110684,21.856102 112.110684,23 C112.110684,24.1441327 113.038429,25.0716429 114.182327,25.0716429 L118.233378,25.0716429 C118.053602,23.4604694 117.303286,22.0027857 116.102357,20.9283571 Z" id="Path" fill="#EDEDEE"></path>
                        <path d="M71.7041429,3.82809184 C71.2077653,3.24886735 70.6527143,2.73230612 70.0528367,2.28263265 L66.6718367,2.28263265 C65.7936122,2.28263265 65.313898,3.30683673 65.8759898,3.98181633 L73.577,13.2226531 C74.3641633,14.1672959 75.5303571,14.7134286 76.7599184,14.7134286 L81.034398,14.7134286 L71.7041429,3.82809184 Z" id="Path" fill="#625D6B"></path>
                        <polygon id="Path" fill="#504B5A" points="27.315551 14.2691531 31.3112143 2.28239796 27.1676939 2.28239796 21.4974898 13.6228061"></polygon>
                        <path d="M1.75105102,16.9392653 L1.27133673,18.8564796 L6.44985714,18.8564796 C7.5939898,18.8564796 8.5215,17.9287347 8.5215,16.7848367 C8.5215,15.6409388 7.5937551,14.7131939 6.44985714,14.7131939 L2.68043878,14.7131939 C2.26831633,15.4050714 1.94842857,16.1511633 1.75105102,16.9392653 Z" id="Path" fill="#FF6464"></path>
                        <circle id="Oval" fill="#EDEDEE" cx="98.6432449" cy="34.3941531" r="9.49571429"></circle>
                        <path d="M98.6432449,45.7894796 C92.3597857,45.7894796 87.2486224,40.6780816 87.2486224,34.3948571 C87.2486224,28.111398 92.3600204,23.0002347 98.6432449,23.0002347 C104.926469,23.0002347 110.037867,28.1116327 110.037867,34.3948571 C110.037867,40.6780816 104.926704,45.7894796 98.6432449,45.7894796 Z M98.6432449,27.1435204 C94.6442959,27.1435204 91.3921429,30.3956735 91.3921429,34.3946224 C91.3921429,38.3935714 94.6442959,41.6457245 98.6432449,41.6457245 C102.642194,41.6457245 105.894347,38.3935714 105.894347,34.3946224 C105.894347,30.3956735 102.642194,27.1435204 98.6432449,27.1435204 Z" id="Shape" fill="#504B5A" fill-rule="nonzero"></path>
                        <circle id="Oval" fill="#DCDBDE" cx="98.6432449" cy="34.3941531" r="4.14352041"></circle>
                    </g>
                    <g id="smartphone" transform="translate(88.000000, 22.000000)">
                        <rect id="Rectangle" fill="#C8D2D6" x="21" y="53" width="27" height="13"></rect>
                        <path d="M39,66 L21,66 L21,53 L31.60425,53 C35.689125,53 39,56.4780909 39,60.7692727 L39,66 Z" id="Path" fill="#E7ECED"></path>
                        <circle id="Oval" fill="#7383BF" cx="32" cy="60" r="3"></circle>
                        <path d="M30.4980603,12 C31.9698597,11.3530289 33,9.88719785 33,8.17785736 C33,5.87048642 31.1295136,4 28.8221426,4 C27.1116085,4 25.6457774,5.03014026 25,6.50193972 L30.4980603,12 Z" id="Path" fill="#FBCE9D"></path>
                        <path d="M35.4980603,18 C36.9698597,17.3530289 38,15.8871979 38,14.1778574 C38,11.8704864 36.1295136,10 33.8221426,10 C32.1116085,10 30.6457774,11.0301403 30,12.5019397 L35.4980603,18 Z" id="Path" fill="#FBCE9D"></path>
                        <path d="M41.4980603,24 C42.9698597,23.3530289 44,21.8871979 44,20.1778574 C44,17.8704864 42.1295136,16 39.8221426,16 C38.1116085,16 36.6457774,17.0301403 36,18.5019397 L41.4980603,24 Z" id="Path" fill="#FBCE9D"></path>
                        <path d="M46.4980603,29 C47.9698597,28.3530289 49,26.8871979 49,25.1778574 C49,22.8704864 47.1295136,21 44.8221426,21 C43.1116085,21 41.6457774,22.0301403 41,23.5019397 L46.4980603,29 Z" id="Path" fill="#FBCE9D"></path>
                        <path d="M24.0882353,38 L12.9117647,38 C10.7602941,38 9,36.2 9,34 L9,34 C9,31.8 10.7602941,30 12.9117647,30 L24.0882353,30 C26.2397059,30 28,31.8 28,34 L28,34 C28,36.2 26.2397059,38 24.0882353,38 Z" id="Path" fill="#FBCE9D"></path>
                        <path d="M46.8723693,36 L34.1864426,48.9662499 C33.1642672,50.0110125 31.5066547,50.0110125 30.4856201,48.9662499 L19.4401937,37.6755846 L11.9233258,37.6755846 C11.2639314,38.005571 9.4648571,36.8150547 10.1550537,37.4202241 L22.4896075,49.9783637 C22.5740283,50.0646499 22.6721389,50.1264494 22.7611229,50.2045734 L22.7611229,54 L45.5775378,54 L45.5775378,48.7412062 C47.6526907,47.1449116 49,44.6157932 49,41.7566885 C48.9988592,39.5493943 48.1922989,37.5391592 46.8723693,36 Z" id="Path" fill="#F7B563"></path>
                        <path d="M21.4917592,4 L4,21.4912795 L12.5361854,30.0272308 C12.6767311,30.0126145 12.8127794,29.9845061 12.9555738,29.9845061 L24.1992321,29.9845061 C26.3636364,29.9845061 28.1345125,31.7553337 28.1345125,33.9196786 C28.1345125,36.0840235 26.3636364,37.8548511 24.1992321,37.8548511 L20.3640203,37.8548511 L27.5093651,45 L45,27.5087205 L21.4917592,4 Z" id="Path" fill="#424A60"></path>
                        <g id="Group" fill="#E7ECED">
                            <path d="M21.158687,3.30771821 L18.6594164,0.769396552 C17.6493369,-0.256465517 16.0113395,-0.256465517 15.0023873,0.769396552 L1.12168435,14.8658405 C0.111604775,15.8917026 0.111604775,17.5552936 1.12168435,18.5811557 L3.62095491,21.1194774 L21.158687,3.30771821 Z" id="Path"></path>
                            <path d="M48.4804377,31.0575162 L44.7287135,27.2471713 L27.1921088,45.0589305 L30.9427056,48.8681304 C31.9527851,49.8939925 33.5907825,49.8939925 34.5997347,48.8681304 L48.4793103,34.7716864 C49.4905172,33.7469693 49.4905172,32.0833782 48.4804377,31.0575162 Z" id="Path"></path>
                        </g>
                        <circle id="Oval" fill="#FFFFFF" cx="38.5" cy="38.5" r="2.5"></circle>
                        <path d="M9.25015623,13 C8.93019623,13 8.61023622,12.8775077 8.36651669,12.6337729 C7.87782777,12.1450534 7.87782777,11.3551028 8.36651669,10.8663834 L10.8662042,8.36653959 C11.3548931,7.87782014 12.1447944,7.87782014 12.6334833,8.36653959 C13.1221722,8.85525905 13.1221722,9.64520967 12.6334833,10.1339291 L10.1337958,12.6337729 C9.89007624,12.8775077 9.57011624,13 9.25015623,13 Z" id="Path" fill="#424A60"></path>
                    </g>
                </g>
            </g>
        </g>
    </g>
</svg>