<?xml version="1.0" encoding="UTF-8"?>
<svg width="155px" height="145px" viewBox="0 0 155 145" version="1.1" xmlns="http://www.w3.org/2000/svg" xmlns:xlink="http://www.w3.org/1999/xlink">
    <!-- Generator: Sketch 53.2 (72643) - https://sketchapp.com -->
    <title>Desktop</title>
    <desc>Created with Sketch.</desc>
    <defs>
        <linearGradient x1="50%" y1="0%" x2="50%" y2="100%" id="linearGradient-1">
            <stop stop-color="#EEF5FF" offset="0%"></stop>
            <stop stop-color="#CEE0FF" offset="100%"></stop>
        </linearGradient>
        <path d="M9.40714286,8.30828571 L8.61085714,14.9545714 L0.673714286,6.26228571 L9.90085714,0.196285714 L14.0477143,1.68514286 L11.2654286,4.27457143 L12.1354286,7.53857143 C12.2271429,7.88228571 12.1037143,8.24828571 11.8217143,8.466 C11.4051429,8.78742857 10.8025714,8.67685714 10.5274286,8.22942857 L9.62057143,7.38171429 L9.40714286,8.30828571" id="path-2"></path>
    </defs>
    <g id="Page-1" stroke="none" stroke-width="1" fill="none" fill-rule="evenodd">
        <g id="Desktop" transform="translate(-177.000000, -787.000000)">
            <g id="How-it-works" transform="translate(174.000000, 676.000000)">
                <g id="one" transform="translate(0.000000, 103.000000)">
                    <path d="M86.1745555,118.401206 C108.099222,118.401206 127.486652,135.061929 139.247987,118.401206 C146.729561,107.803053 153.291901,94.7427871 151.125285,80.8990277 C149.481912,70.3985653 136.340691,73.8833046 126.143703,61.5725872 C110.503896,42.690811 111.486647,15.8577892 86.1745555,15.8577892 C62.0207589,15.8577892 69.9251836,39.6609527 54.4637917,57.094073 C42.2797637,70.8318805 25.0053144,66.5985471 21.2238257,80.8990277 C17.6988543,94.2294354 25.4287947,107.234881 32.6131913,117.700321 C44.3218355,134.756188 63.9439223,118.401206 86.1745555,118.401206 Z" id="Oval" fill="url(#linearGradient-1)" fill-rule="nonzero" transform="translate(85.944369, 70.831881) rotate(15.000000) translate(-85.944369, -70.831881) "></path>
                    <g id="connect.19211dce8d8263e074e9cfe43237b67d" transform="translate(86.000000, 22.000000)">
                        <g id="obd-plug-in-copy">
                            <g id="Group" transform="translate(0.000000, 0.102789)">
                                <path d="M5.3279487,7.14820019 L34.0465632,7.14820019 L33.2338789,1.48667922 L33.2338789,1.48667922 C33.1113396,0.633015806 32.3907935,2.27215201e-13 31.541629,2.27373675e-13 L7.83288285,2.28299546e-13 L7.83288285,2.29534039e-13 C6.98371833,2.29692513e-13 6.26317222,0.633015806 6.14063291,1.48667922 L5.3279487,7.14820019 Z" id="Shape" fill="#797979"></path>
                                <path d="M4.42571878,4.41170422 L34.9487931,4.41170422 L34.9487931,4.41170422 C35.9958248,4.41170422 36.8749665,5.21249089 36.9888068,6.26989733 L39.1829641,26.650364 L0.191547885,26.650364 L2.38570494,6.26989733 L2.38570494,6.26989733 C2.49954511,5.21249089 3.37868725,4.41170422 4.42571878,4.41170422 Z" id="Shape" fill="#4C4C4C"></path>
                                <g id="obd-plug-in-a-link" transform="translate(19.681315, 30.178705) rotate(-180.000000) translate(-19.681315, -30.178705) translate(0.042853, 24.486397)" fill="#797979">
                                    <g id="Group">
                                        <path d="M2.83022986,11.3821464 L36.4354829,11.3821464 L36.4354829,11.3821464 C37.9466665,11.3821464 39.1717226,10.137573 39.1717226,8.60231389 C39.1717226,8.28110043 39.116924,7.96231684 39.0097589,7.6601165 L36.7724543,1.35101898 L36.7724543,1.35101898 C36.5280791,0.661892045 35.8845293,0.20249707 35.1635318,0.20249707 L4.10218107,0.20249707 L4.10218107,0.20249707 C3.38118348,0.20249707 2.73763383,0.661892045 2.49325865,1.35101898 L0.255954025,7.6601165 L0.255954025,7.6601165 C-0.256247056,9.10450034 0.481074477,10.6972408 1.90280776,11.2176022 C2.20026906,11.3264743 2.51405341,11.3821464 2.83022986,11.3821464 Z" id="obd-plug-in-a"></path>
                                    </g>
                                </g>
                            </g>
                        </g>
                    </g>
                    <g id="connect.19211dce8d8263e074e9cfe43237b67d" transform="translate(86.000000, 22.000000)">
                        <g id="obd-plug-in-copy">
                            <g id="Group" transform="translate(0.000000, 0.102789)">
                                <path d="M5.3279487,7.14820019 L34.0465632,7.14820019 L33.2338789,1.48667922 L33.2338789,1.48667922 C33.1113396,0.633015806 32.3907935,2.27215201e-13 31.541629,2.27373675e-13 L7.83288285,2.28299546e-13 L7.83288285,2.29534039e-13 C6.98371833,2.29692513e-13 6.26317222,0.633015806 6.14063291,1.48667922 L5.3279487,7.14820019 Z" id="Shape" fill="#797979"></path>
                                <path d="M4.42571878,4.41170422 L34.9487931,4.41170422 L34.9487931,4.41170422 C35.9958248,4.41170422 36.8749665,5.21249089 36.9888068,6.26989733 L39.1829641,26.650364 L0.191547885,26.650364 L2.38570494,6.26989733 L2.38570494,6.26989733 C2.49954511,5.21249089 3.37868725,4.41170422 4.42571878,4.41170422 Z" id="Shape" fill="#4C4C4C"></path>
                                <g id="obd-plug-in-a-link" transform="translate(19.681315, 30.178705) rotate(-180.000000) translate(-19.681315, -30.178705) translate(0.042853, 24.486397)" fill="#797979">
                                    <g id="Group">
                                        <path d="M2.83022986,11.3821464 L36.4354829,11.3821464 L36.4354829,11.3821464 C37.9466665,11.3821464 39.1717226,10.137573 39.1717226,8.60231389 C39.1717226,8.28110043 39.116924,7.96231684 39.0097589,7.6601165 L36.7724543,1.35101898 L36.7724543,1.35101898 C36.5280791,0.661892045 35.8845293,0.20249707 35.1635318,0.20249707 L4.10218107,0.20249707 L4.10218107,0.20249707 C3.38118348,0.20249707 2.73763383,0.661892045 2.49325865,1.35101898 L0.255954025,7.6601165 L0.255954025,7.6601165 C-0.256247056,9.10450034 0.481074477,10.6972408 1.90280776,11.2176022 C2.20026906,11.3264743 2.51405341,11.3821464 2.83022986,11.3821464 Z" id="obd-plug-in-a"></path>
                                    </g>
                                </g>
                            </g>
                        </g>
                    </g>
                    <g id="Group-2" transform="translate(98.000000, 66.000000)" fill-rule="nonzero">
                        <path d="M8.1146385,50 C12.0859838,50 12.5708821,37.0967742 15.3053952,25 C18.0399083,12.9032258 12.0859838,0 8.1146385,0 C4.14329322,0 -2.4332707,8.80639872 0.923881776,25 C4.28103425,41.1936013 4.14329322,50 8.1146385,50 Z" id="Oval" fill="#4C4C4C" transform="translate(8.000000, 25.000000) scale(1, -1) translate(-8.000000, -25.000000) "></path>
                        <circle id="Oval" stroke="#979797" fill="#797979" cx="8.5" cy="37.5" r="5.5"></circle>
                    </g>
                    <g id="selec" transform="translate(24.000000, 41.000000)">
                        <path d="M6.48685714,58.1014286 C6.48685714,59.892 5.03485714,61.3448571 3.24342857,61.3448571 C1.452,61.3448571 -1.42108547e-14,59.892 -1.42108547e-14,58.1014286 C-1.42108547e-14,56.31 1.452,54.8571429 3.24342857,54.8571429 C5.03485714,54.8571429 6.48685714,56.31 6.48685714,58.1014286" id="Fill-146" fill="#E3AEA0"></path>
                        <path d="M22.6991813,29.8642896 C22.6991813,29.8642896 17.3437527,28.3351468 20.9797527,26.0285753 C24.6140384,23.7220039 32.3831813,20.2711468 32.4140384,27.4480039 L22.6991813,29.8642896" id="Fill-147" fill="#4876A8"></path>
                        <path d="M30.6034286,30.5125714 L30,26.1137143 L42.12,24.4534286 L48.8031429,9.42857143 L52.8591429,11.2328571 L45.7285714,27.264 C45.3831429,28.0422857 44.6588571,28.5857143 43.8154286,28.7022857 L30.6034286,30.5125714" id="Fill-148" fill="#4876A8"></path>
                        <path d="M44.7034286,106.326 L33.4285714,106.326 L33.4285714,102.857143 L41.2354286,102.857143 C43.1502857,102.857143 44.7034286,104.410286 44.7034286,106.326" id="Fill-149" fill="#684940"></path>
                        <polyline id="Fill-150" fill="#D57E62" points="26.0871429 25.7142857 20.5714286 30.06 22.0697143 57.2365714 38.3245714 52.7134286 32.4308571 25.7142857 26.0871429 25.7142857"></polyline>
                        <polyline id="Fill-151" fill="#0E1425" points="31.7022857 54.8571429 29.2645714 78.0857143 14.8525714 103.457143 11.1428571 100.14 22.1871429 77.4985714 22.1871429 57.5048571 31.7022857 54.8571429"></polyline>
                        <polyline id="Fill-152" fill="#0E1425" points="38.3948571 53.1428571 41.4454286 73.5625714 38.3948571 103.618286 34.4185714 103.618286 34.4185714 74.538 29.1428571 55.7168571 38.3948571 53.1428571"></polyline>
                        <path d="M20.0288571,107.385429 L9.42857143,103.546286 L10.6097143,100.285714 L17.9502857,102.943714 C19.7502857,103.596 20.682,105.584571 20.0288571,107.385429" id="Fill-153" fill="#684940"></path>
                        <path d="M23.1428571,22.6611429 L24.5262857,27.9994286 C24.5262857,27.9994286 27.2314286,30.7945714 29.2645714,26.4034286 L26.3571429,21.4285714 L23.1428571,22.6611429" id="Fill-154" fill="#CC998F"></path>
                        <path d="M30.4306228,17.265766 C30.0200514,20.6866232 26.91548,23.1269089 23.49548,22.7163374 C20.0746228,22.305766 17.6351942,19.2003374 18.0449085,15.7803374 C18.45548,12.3603374 21.5609085,9.92090887 24.9809085,10.3306232 C28.4009085,10.7411946 30.8411942,13.8466232 30.4306228,17.265766" id="Fill-155" fill="#E3AEA0"></path>
                        <path d="M29.7368571,13.7142857 L31.236,14.1617143 C31.692,14.2971429 31.8051429,14.8894286 31.4314286,15.1825714 L30.5648571,15.8631429 L29.1428571,15.6925714 L29.7368571,13.7142857" id="Fill-156" fill="#E3AEA0"></path>
                        <g id="Group-159" transform="translate(12.857143, 8.571429)">
                            <mask id="mask-3" fill="white">
                                <use xlink:href="#path-2"></use>
                            </mask>
                            <g id="Clip-158"></g>
                            <path d="M17.3665714,8.71542857 C16.956,12.1362857 13.8514286,14.5765714 10.4314286,14.166 C7.01057143,13.7554286 3.90257143,10.26 4.31314286,6.83914286 C4.72285714,3.41914286 8.49685714,1.37057143 11.9168571,1.78028571 C15.3368571,2.19085714 17.7771429,5.29628571 17.3665714,8.71542857" id="Fill-157" fill="#212123" mask="url(#mask-3)"></path>
                        </g>
                        <path d="M23.3083756,17.4465514 C23.1892328,18.4356943 22.2918042,19.1411228 21.3026613,19.0228371 C20.3143756,18.9036943 19.608947,18.0062657 19.7272328,17.0171228 C19.8455185,16.02798 20.7438042,15.3225514 21.732947,15.4416943 C22.7212328,15.55998 23.4275185,16.4574085 23.3083756,17.4465514" id="Fill-160" fill="#E3AEA0"></path>
                        <path d="M6.54257143,56.8225714 L2.57142857,54.8391429 L10.0474286,39.8734286 C10.3174286,39.3325714 10.6911429,38.8482857 11.1462857,38.4497143 L18.8382857,31.7142857 L24.2897143,32.8422857 L14.0374286,41.8182857 L6.54257143,56.8225714" id="Fill-161" fill="#4876A8"></path>
                        <path d="M23.8797886,27.4285714 L26.7297886,56.2345714 C26.8566458,57.5082857 26.0689315,58.6937143 24.8457886,59.0708571 L19.7355029,60.648 C18.4086458,61.0568571 17.0792172,60.0248571 17.1452172,58.638 L18.42836,31.8505714 L23.8797886,27.4285714" id="Fill-162" fill="#4876A8"></path>
                        <path d="M29.1428571,25.7142857 C29.1428571,25.7142857 33.7182857,26.9177143 38.5551429,52.7134286 L39.1457143,56.664 L40.0568571,56.664 C41.1145714,56.664 41.9537143,55.7674286 41.8714286,54.7131429 C41.526,50.2542857 39.9402857,38.6957143 32.6614286,25.7142857 L29.1428571,25.7142857" id="Fill-163" fill="#4876A8"></path>
                        <path d="M22.7104762,29.2191429 C21.7547619,34.1991429 22.7104762,39.5074286 22.7104762,39.5074286 M29.9927619,25.7142857 C29.9927619,25.7142857 32.7639048,26.916 34.145619,33.2117143" id="Stroke-164" stroke="#FFFFFE" stroke-width="0.555" stroke-linecap="round" stroke-linejoin="round"></path>
                        <polygon id="Fill-165" fill="#E3AEA0" points="50.2805783 9.76996262e-15 51.2313107 3.58001714 56.0202857 5.97307204 52.9131429 11.3559292 48.8571429 9.55164347"></polygon>
                    </g>
                </g>
            </g>
        </g>
    </g>
</svg>